<svg id="Layer_1" data-name="Layer 1" xmlns="http://www.w3.org/2000/svg" viewBox="0 0 1024 500"><defs><style>.cls-1{fill:#394dc4;}.cls-2{fill:#2a52e2;}.cls-3{fill:#fff;}</style></defs><path d="M65.64,339.45V252.38q27.87-9,56-17.21,41.55.24,83,2-19.12-40.82-38.33-81.6,6.48-12.74,13-25.47,71.08-15.43,143-26.07,24-2.23,48.1-3.9,15.72,4.78,31.38,9.71c9-5.11,13.54-7.64,22.57-12.65q74.43-2.76,148.82-.3,54.94,2.19,109.67,7.14c7.87,4.22,11.8,6.35,19.66,10.65q26.13-4.08,52.33-7.62,28.47,6.63,56.72,14.13c6.58,8.14,9.87,12.23,16.45,20.43q-1.81,21.3-3.62,42.6,6.51,19.65,13,39.29,42.64,8.37,84.91,18.37,8.65,15.73,17.25,31.49l-17.25,41.06q4.7,14.47,9.37,29,3.94,21.94,7.88,43.89c-6.89,7.4-10.34,11.11-17.24,18.58A2041.94,2041.94,0,0,0,686.8,368.55c-6.52-5.56-9.77-8.33-16.29-13.83q-25.59,7.3-51,15.09-36.09-4.24-72.28-7.37-12.37-9.87-24.84-19.64-25,14.56-49.69,29.52-33.15-7-66.46-13.06-12.7-14.55-25.51-29Q353.92,348.4,327.45,367q-34.54,3.27-69,7.54-18-11.41-36.05-22.64-16.53,15.19-33,30.52-49.3,11.91-98,26-12.87-9-25.82-17.84Z"/><path d="M100.67,398.56c-9.43,2.25-20.89,3.05-28.08-4.81l-.2-.24C69,389.15,67.31,383,67.31,374.78v-96a56.92,56.92,0,0,1,.5-8.67,32.73,32.73,0,0,1,4.07-11.27c5.91-10.34,17.28-16.32,29-18.52q18.69-3.89,37.45-7.41c21.78-2.95,42.63-1.06,61.5,10.75,17.66,11.06,28.33,31.6,28.26,52.42-.08,23.39-11.19,44.83-27.36,61.27a120.31,120.31,0,0,1-63.08,33.69Q119.12,394.64,100.67,398.56Zm37.58-69.8a32.13,32.13,0,0,0,16.62-9c5-4.87,5.71-8.68,5.71-11.78,0-4.55-1.7-7.58-5.67-10.12-4.84-3.09-10.21-3.95-16.87-2.67l-3.7.72v33.6Z"/><path d="M100.88,256.17q18.65-3.88,37.36-7.39c17.95-2.26,36.16-1.78,51.69,8.84,13.6,9,23,24.08,22.35,40.83,0,18.31-8.89,35.92-21.85,48.58a98.06,98.06,0,0,1-52.79,28.22q-18.52,3.57-37,7.49c-8.2,1.74-13.3,1.44-15.31-1q-2.43-3.09-2.42-10.51v-96a44.67,44.67,0,0,1,.3-6.11,15.92,15.92,0,0,1,1.91-4.91c1.88-3.52,7.12-6.24,15.73-8.07m17.76,92.28c7.83-1.59,11.76-2.36,19.6-3.87,9.28-1.5,19.86-7.37,26.33-14.1,6.64-5.66,12.11-16.38,11.76-25.27,0-9.32-3.82-16.47-11.46-21.39s-16.58-6.42-26.83-4.45c-7.77,1.49-11.65,2.26-19.4,3.83v65.25M101,224.51l-.07,0C83.94,228,66.63,237.58,58.62,253.59a54.47,54.47,0,0,0-6.23,17.65,73.86,73.86,0,0,0-.7,11.25v96c-.48,8.59,2.13,20.07,7.75,26.9l.19.25.21.24c3.61,4.32,10.43,9.59,22.45,10.3a69.16,69.16,0,0,0,18.38-1.77q18.45-3.93,37-7.49A139.73,139.73,0,0,0,211,367.77c19-20.88,32.88-44.82,32.89-73.86.09-26-12.27-49.87-34.17-64.08-22-14.42-46-16.34-71.4-12.71q-18.69,3.51-37.31,7.38Z"/><path d="M296.84,369.51c-22.24,1.27-44.9-1.46-63.14-15.08-16.41-12.26-28.12-32.55-27-53.13a99.4,99.4,0,0,1,7.7-35,85.26,85.26,0,0,1,20.38-29.17,117.09,117.09,0,0,1,28.11-19.71,99.24,99.24,0,0,1,32.78-9.61c21.39-2.35,44,2.35,62.69,16.4a69.44,69.44,0,0,1,28.05,56.1c0,23-10.19,44.18-26.5,60.09A105.76,105.76,0,0,1,296.84,369.51ZM296.23,270c-6,.64-11.1,3.11-16,7.75a17,17,0,0,0-5.87,13.43c0,5.51,1.77,9.1,5.91,12a22.57,22.57,0,0,0,16.2,4.2,27.69,27.69,0,0,0,16.2-7.51c4-3.6,5.72-7.55,5.72-13.25s-1.76-9.42-5.88-12.34A22.55,22.55,0,0,0,296.23,270Z"/><path d="M295.62,223.67c18.73-.79,37.3,1.46,52.53,13.53,13.58,10.46,23,26.62,22.3,44.17.06,18.13-8.07,35.84-21.28,48.19a85.93,85.93,0,0,1-52.33,24.13c-18.08,2-38-1.19-52.72-12.6-13.92-9.49-21.44-25.63-21.68-42.18a64,64,0,0,1,6.11-27.72A72.08,72.08,0,0,1,244.84,248a85.72,85.72,0,0,1,23.43-16.3,78.17,78.17,0,0,1,27.35-8m.82,99.51c9-.66,19.69-5.68,26.15-11.95,7.1-5.67,12.16-17,11.65-26.08,0-10.47-3.92-18.54-11.76-24.14a37,37,0,0,0-26.25-6.85c-9.1.67-19.82,6-26.12,12.56-7,5.9-12.07,17.24-11.62,26.39,0,10.25,3.9,18.05,11.72,23.49a37.45,37.45,0,0,0,26.23,6.58M295.62,192a114.41,114.41,0,0,0-38.21,11.25,127.87,127.87,0,0,0-32.78,23.16,115.56,115.56,0,0,0-24.47,35.15,102.6,102.6,0,0,0-9.3,42.22,77.82,77.82,0,0,0,32.43,64c22,16.08,47.1,19.21,73.55,17.51,27.67-2.91,53.73-14.46,73.71-33.94,19.58-18.95,31.75-44.48,31.72-71.94a84.52,84.52,0,0,0-33.78-68.09c-21.73-16.53-46.22-20.91-72.87-19.33Zm-5.42,96.85.09-.09c2.37-2.21,4-2.78,5.94-3a8.19,8.19,0,0,1,6.23,1.75c0,.16,0,.37,0,.64s0,.4,0,.55a10,10,0,0,1-6,2.8,8.05,8.05,0,0,1-6.15-1.76l-.1-.07c0-.1,0-.23,0-.37s0-.34,0-.46Z"/><path d="M455.48,359.09c-22.85.63-46.59-5.67-63.46-20.31-15.95-13.84-28.38-33.16-27.24-55.37.66-12.69,2.61-23.37,7.76-34.32,4.94-10.53,11.76-19.05,20.51-27.48,8-7.68,18.44-13.42,28.27-17.38,10.56-4.25,21.24-6.24,32.93-6.9,22.24-1.26,45.28,6.92,62.9,21.58s28.09,35.52,28.09,58.4c0,22.42-9.88,43.06-26.55,57.92C501.3,350.73,478.68,358.6,455.48,359.09Zm-.61-99.58a24.69,24.69,0,0,0-16.1,6.43c-4.14,3.52-5.9,7.4-5.9,12.94s1.78,9.24,5.94,12.49a24.28,24.28,0,0,0,16.26,5.54,25.7,25.7,0,0,0,16.28-6.17c4-3.27,5.73-7.09,5.73-12.78s-1.76-9.57-5.9-12.83A24.17,24.17,0,0,0,454.87,259.51Z"/><path d="M454.25,213.15A77.82,77.82,0,0,1,507,231a58.71,58.71,0,0,1,22.35,46c.6,17.88-8.48,34.6-21.33,46.43-14.17,12.79-33.44,19.77-52.5,19.81-18.69.55-38.53-4.6-53-17-13.73-10.42-21.54-26.92-21.81-44a60.65,60.65,0,0,1,6.14-27.22,67.28,67.28,0,0,1,16.39-21.89,81.56,81.56,0,0,1,23.56-14.36,74.72,74.72,0,0,1,27.47-5.72m.82,99.58c8.81.12,19.66-4,26.25-9.79,7.23-5.2,12.25-16.29,11.69-25.12.56-8.85-4.51-20-11.79-25.11-6.59-5.74-17.6-9.6-26.35-9-8.89-.12-19.8,4.34-26.24,10.41-7.09,5.42-12.18,16.51-11.68,25.42-.56,8.69,4.56,19.53,11.78,24.46,6.65,5.63,17.63,9.32,26.34,8.75m-.82-131.22a151.78,151.78,0,0,0-38.38,8.09,115.29,115.29,0,0,0-33,20.44,103.14,103.14,0,0,0-24.64,33.13,96.75,96.75,0,0,0-9.36,41.44c-.06,26.32,12.24,50.32,32.65,66.71,20.88,16.9,47.31,24.31,73.94,23.59,27.14-.6,53.52-9.68,73.93-27.85,20-17.68,31.81-42.54,31.76-69.33,0-27.63-12.73-53.25-33.83-70.88-22.7-17.21-44.62-24.68-73.09-25.34Zm-5.44,96.4.1-.08a8.64,8.64,0,0,1,6-2.5,8.78,8.78,0,0,1,6.25,2.26,5.67,5.67,0,0,1,0,.65c0,.21,0,.39,0,.54a9.15,9.15,0,0,1-6.06,2.31c-2,.05-3.68-.32-6.17-2.27l-.09-.08c0-.1,0-.22,0-.37s0-.34,0-.46Z"/><path d="M560.68,357.14c-10.61-.09-21.89-2.66-28.59-11.64l-.2-.3c-3.49-5.19-5.18-11.71-5.18-20v-96a54.28,54.28,0,0,1,.5-8.54,25.66,25.66,0,0,1,4.16-10.29c6.31-9.27,18.5-12.1,29.51-11.45q19,.66,38,1.69c24.28,2.56,43.76,10.33,62.11,25.64,17.16,14.33,28.37,36.13,28.41,59.24,0,21.27-10.62,42-27.51,54.66-18.08,13.55-41,19.63-63.7,18.43Q579.45,357.71,560.68,357.14Zm38.12-60.67a25.63,25.63,0,0,0,16.82-5c5.09-3.66,5.77-7.31,5.77-10.41,0-4.54-1.71-8-5.73-11.49a26.7,26.7,0,0,0-17.07-6.75l-3.75-.19v33.61Z"/><path d="M560.88,214.8q19,.66,37.92,1.69c19.15.56,38,8.76,52.21,21.35,13.6,11.31,22.55,28.41,22.5,46.23.65,17.24-8.89,32.89-22,43.31C636.6,339,617,344.16,598.18,342.82q-18.73-.93-37.5-1.5c-8.34-.25-13.53-1.79-15.58-4.72q-2.46-3.68-2.46-11.1v-96a43.1,43.1,0,0,1,.3-6,12.42,12.42,0,0,1,1.95-4.44c1.91-3.07,7.25-4.51,16-4.25m18,96.61c8,.31,11.93.49,19.88.88,8.66.8,19.75-2.37,26.62-7.72,7.92-5.65,11.88-13.1,11.88-22.42s-3.86-17.4-11.57-24.17c-6.66-6.33-18-10.87-27.14-11-7.86-.39-11.8-.56-19.67-.87v65.25M561,183.16h-.07c-16.63-.69-33.55,4.34-43,18.76a42.48,42.48,0,0,0-6.35,16.14,67.57,67.57,0,0,0-.72,11.07v96c-.43,9.26,2.44,21.13,7.9,28.78l.21.3.2.29A42.65,42.65,0,0,0,542,370.26,73.69,73.69,0,0,0,560.68,373q18.75.55,37.5,1.49c26.4,1.37,52.9-5.1,74.06-21.37,20.78-15.84,33.1-39.71,33-65.94,0-28.08-13.52-53.91-34.31-72.31-22.07-17.94-43.73-27.2-72.06-30q-18.93-1-37.86-1.69Z"/><path d="M704.78,367.05c-12.75-.62-26.48-7.24-31.47-19.47-1.64-4-2.39-8.8-2.39-15v-96a54,54,0,0,1,.49-8.31,23.78,23.78,0,0,1,4.15-10.17c6.41-9,18.88-10.56,29.42-9.25,13,1.62,26.09,7,31.58,19.73l.19.47.15.46A45.25,45.25,0,0,1,738.79,244v69.79q19.82,2.44,39.59,5.3c6.77,1,11.83,2.55,15.93,4.91A28.31,28.31,0,0,1,807,339.06a39.37,39.37,0,0,1,2,13.15,34.28,34.28,0,0,1-2,12.48,17.91,17.91,0,0,1-12,11c-4.63,1.32-10.17,1.51-16.9.54Q741.54,371,704.78,367.05Z"/><path d="M705,224.72c9.53,1,15.17,3.79,16.94,8.25a30.54,30.54,0,0,1,1,9.09v85.62q27.76,3.27,55.44,7.18c4.47.64,7.73,1.56,9.76,2.73a8.62,8.62,0,0,1,4.07,4.66,23.47,23.47,0,0,1,1,7.5,20.56,20.56,0,0,1-1,7.18,5,5,0,0,1-3.46,3.27q-3.87,1.16-10.58.17-36.63-5.16-73.39-9.14c-9.54-1-15.12-3.72-16.76-8.25q-1.21-2.88-1.22-8.92v-96a42.59,42.59,0,0,1,.3-5.92,11.38,11.38,0,0,1,1.94-4.39c1.91-2.92,7.23-4,15.94-3.05m0-31.64c-16.07-1.9-33.26,1.57-42.91,15.55a40.16,40.16,0,0,0-6.37,16,69.89,69.89,0,0,0-.67,10.73v96c0,8.28,1.14,15,3.57,21a46.4,46.4,0,0,0,23.23,24.45,68.27,68.27,0,0,0,22.95,6.1q36.78,4,73.39,9.15c9,1.29,16.55,1,23.22-.88,8.62-2,17.61-10.14,20.42-18.51v-.05a48.23,48.23,0,0,0,2.95-17.77,56.79,56.79,0,0,0-2.94-18.74l0,0,0,0a48.39,48.39,0,0,0-21.33-25.64c-6.11-3.55-13.13-5.83-22.09-7.13-9.5-1.36-14.25-2-23.75-3.27V246a61.17,61.17,0,0,0-2.77-19.7c-.12-.38-.18-.56-.31-.94s-.21-.55-.36-.91c-7.55-19-26.46-29.45-46.21-31.34Z"/><path d="M824.3,383.41c-13.09-2-26.23-8.57-31.28-21.44-1.62-4.13-2.38-9-2.38-15.12v-96c0-10.79,3.23-18.45,9.6-22.73,5.62-3.77,13.47-4.7,24.67-2.8q40,6.9,79.71,15.21a85.48,85.48,0,0,1,8.67,2.22,39.35,39.35,0,0,1,10,5.13c9.82,6.77,14.74,19.77,14.69,31.24,0,11.64-5.86,24.17-18.76,25.12a37,37,0,0,1-7-.22,42.64,42.64,0,0,1,3.62,18.11c0,7.31-1.51,12.52-3.73,16.23l1.19.37a39.36,39.36,0,0,1,10,5.12c9.82,6.77,14.74,19.78,14.69,31.25,0,11.63-5.86,24.16-18.76,25.12-3.81.28-8.52-.22-14.81-1.56Q864.47,390.34,824.3,383.41Z"/><path d="M904.62,256.38q4.64,1,7,1.76a22.36,22.36,0,0,1,5.34,2.8q5.43,3.62,5.43,14.67,0,12.08-7.45,12.51c-2.28.19-5.78-.23-10.48-1.23q-31-6.48-62.07-12.14v17.44q20.07,3.58,40.07,7.59a71.49,71.49,0,0,1,7,1.67,21.91,21.91,0,0,1,5.35,2.74q5.46,3.56,5.45,14.61,0,12.07-7.67,12.55-3.43.33-10.5-1.1-19.78-4-39.66-7.51v17.43q31.21,5.68,62.27,12.19,4.64,1,7,1.75a22.73,22.73,0,0,1,5.34,2.8q5.43,3.61,5.43,14.67,0,12.09-7.45,12.51-3.42.29-10.48-1.22-39.95-8.36-80.12-15.28c-9.47-1.6-15-4.66-16.65-9.29q-1.21-3-1.22-9v-96q0-8.81,3.86-11.37c2.57-1.72,7.45-2,14.62-.78q40,6.9,79.71,15.21m0-31.64q-39.74-8.31-79.71-15.22c-11.77-2.17-24.36-1.8-34.72,4.89-11,7.93-15.22,20.9-15.35,34.15v96c0,8.28,1.13,15.07,3.56,21.27a50.48,50.48,0,0,0,23.09,25.89,71.12,71.12,0,0,0,22.81,7.55q40.22,6.93,80.12,15.27c7.78,1.66,13.87,2.27,19.12,1.9,9.15-.06,20.18-6.34,24.54-14.47,3.66-6.1,5.52-13.88,5.52-23.13.09-18.2-7.69-35.94-22.42-46.88a62.57,62.57,0,0,0,.31-6.28c0-2.27-.11-4.46-.31-6.55A29.1,29.1,0,0,0,948.08,306c3.66-6.11,5.52-13.89,5.52-23.14.1-18.78-8.25-37.13-23.85-47.89a58.74,58.74,0,0,0-14.72-7.5,98.06,98.06,0,0,0-10.41-2.7Z"/><path class="cls-1" d="M269.19,217.36A24.65,24.65,0,0,1,254.57,215a20.49,20.49,0,0,1-8.5-7.6c-.45.81-1,1.64-1.57,2.52a34.21,34.21,0,0,1-4.31,5.15,29.8,29.8,0,0,1-16.67,8.4,25.14,25.14,0,0,1-14.47-1.7,19.2,19.2,0,0,1-8.74-7.45c-.49-.82-.74-1.24-1.24-2.06q-11.48-26.2-23-52.39a25.76,25.76,0,0,1-2.37-10.25c0-11,9.78-20.74,19.18-24.67a47.6,47.6,0,0,1,10.55-3.31c6.23-1,11.85.55,15.82,4.27a21.11,21.11,0,0,1,4.1,5.43,31.07,31.07,0,0,1,23.41-15.49,24,24,0,0,1,14.07,2.28,20.38,20.38,0,0,1,8.15,7c.21-.46.42-.89.62-1.29a25.9,25.9,0,0,1,7.4-8.73,25.08,25.08,0,0,1,12.66-5.1,32.05,32.05,0,0,1,10.2.59c10.15,2.09,18.91,8.9,19.07,19.56.05,3-.73,6.21-2.51,10.9q-11.28,28.66-22.53,57.35a26.47,26.47,0,0,1-10.08,13A29.76,29.76,0,0,1,269.19,217.36Z"/><path d="M289.68,125.83a18,18,0,0,1,5.53.39c5.24,1,7.87,2.87,7.87,5.52a18.28,18.28,0,0,1-1.41,5q-11.3,28.8-22.56,57.63a11.27,11.27,0,0,1-.82,1.79,12.6,12.6,0,0,1-3.11,3,12.15,12.15,0,0,1-6,2.36,10,10,0,0,1-6-.91,7.83,7.83,0,0,1-3.34-2.8q-6.86-16.26-13.72-32.49-6.63,17.49-13.25,35a10,10,0,0,1-1,1.84,14.39,14.39,0,0,1-1.88,2.25,11.24,11.24,0,0,1-6.44,3.22,10.82,10.82,0,0,1-6.15-.58,7.18,7.18,0,0,1-3.21-2.5c-.33-.55-.5-.82-.82-1.37q-11.28-25.8-22.57-51.58a13.45,13.45,0,0,1-1.29-4.66c0-2.65,2.61-5.17,7.83-7.53a24.56,24.56,0,0,1,6.14-2,4.81,4.81,0,0,1,4.21.94,11.76,11.76,0,0,1,2.63,4.46q6.45,15.63,12.88,31.26,6.38-17.26,12.77-34.51a11.74,11.74,0,0,1,6-6.59,15.54,15.54,0,0,1,4.86-1.35,9.38,9.38,0,0,1,5.57.9,6.88,6.88,0,0,1,3.29,2.81q6.75,16.38,13.49,32.78,6.45-17.46,12.92-34.91c.62-1.6,1.13-2.78,1.52-3.55a7.45,7.45,0,0,1,2.18-2.39,7.65,7.65,0,0,1,3.93-1.48m0-31.64A42.28,42.28,0,0,0,268.3,103l-.21.16A38.33,38.33,0,0,0,246.78,100a47.84,47.84,0,0,0-15.75,4.8h0a49.48,49.48,0,0,0-6.63,4,33.58,33.58,0,0,0-21-3.05,62.35,62.35,0,0,0-31.66,15.84c-8.3,8.05-13.7,19.08-13.82,30.75a39.76,39.76,0,0,0,3.47,15.83l.08.19.09.2q11.28,25.6,22.53,51.23c.27.63.4.94.68,1.56l.86,1.43.82,1.36a31.63,31.63,0,0,0,14.23,12.31c6.66,3.08,14.33,4,22.79,2.77a47.79,47.79,0,0,0,22.64-9.78,40.06,40.06,0,0,0,23,3.67,48.16,48.16,0,0,0,23.26-9.44,47.3,47.3,0,0,0,13.15-14.46,46.59,46.59,0,0,0,3.08-6.64q11.18-28.39,22.39-56.77l.07-.2.08-.19c1.79-4.69,3.62-10.35,3.62-16.77-.12-17.62-13.29-30.58-30.27-33.71a46.72,46.72,0,0,0-14.89-.81Z"/><path class="cls-1" d="M371.94,207.63c-9.86,1.13-20.36-2.5-24.42-11.81a21.46,21.46,0,0,1-1.52-5.73c0,.25-.07.49-.1.73a24.51,24.51,0,0,1-3.34,8.87c-4.19,7.07-12.11,10.91-22.66,12.17-9.53,1.15-20.31-1.91-24.38-11.15a26.63,26.63,0,0,1-1.84-10.84V134.73a38.65,38.65,0,0,1,.36-5.87,25.29,25.29,0,0,1,3.33-9c4.19-7.16,12.07-11.18,22.64-12.43,9.59-1.13,20.08,2,24.44,11.27l.19.42.15.44a23.25,23.25,0,0,1,1.16,4.94c0-.21.05-.42.08-.62a24.72,24.72,0,0,1,3.39-9,22.9,22.9,0,0,1,12.51-9.87,43,43,0,0,1,19-1.47,23.84,23.84,0,0,1,8,2.84,18.93,18.93,0,0,1,7.38,8.22l.31.67.24.69a30.27,30.27,0,0,1,1.47,10.26v55.14a38.31,38.31,0,0,1-.37,5.87,23.84,23.84,0,0,1-3.33,8.75C390.44,203,382.8,206.89,371.94,207.63Z"/><path d="M371.7,119.09a23.33,23.33,0,0,1,5.42.14,9.68,9.68,0,0,1,3.07,1,4.27,4.27,0,0,1,1.65,1.89,16.49,16.49,0,0,1,.59,5.13v55.14a24.25,24.25,0,0,1-.18,3.44,7.64,7.64,0,0,1-1.12,2.7c-1.1,1.86-4.17,2.94-9.19,3.28q-8.25.57-9.66-3a13.77,13.77,0,0,1-.71-5.12V163.52q-15.61,1.14-31.2,2.54v20.27a24.16,24.16,0,0,1-.18,3.44,7.87,7.87,0,0,1-1.12,2.74c-1.1,1.89-4.16,3.05-9.17,3.53-5.49.52-8.71-.38-9.65-2.74a13.56,13.56,0,0,1-.7-5.09V133.07a26.53,26.53,0,0,1,.17-3.45,7.94,7.94,0,0,1,1.12-2.74q1.65-2.85,9.17-3.58c5.49-.52,8.75.42,9.77,2.78a16.3,16.3,0,0,1,.59,5.11v20.27q15.58-1.41,31.2-2.54V128.55a24.25,24.25,0,0,1,.18-3.44,7.57,7.57,0,0,1,1.12-2.71,5.6,5.6,0,0,1,3.18-2.32,23.16,23.16,0,0,1,5.65-1m0-31.64a53.86,53.86,0,0,0-13.87,2.66,41.56,41.56,0,0,0-11.89,6.39c-6-3.56-14.36-5.94-25.93-4.84-14.86,1.26-28.33,8.55-36.1,21.36a43,43,0,0,0-5.54,15.18,55.29,55.29,0,0,0-.55,8.32v55.14a41.94,41.94,0,0,0,3,16.56c3.09,8.43,12.54,16.31,21.24,18.24a48.85,48.85,0,0,0,17.87,1.22c8.58-.45,19.3-4,26.14-9.44a36.51,36.51,0,0,0,8,3.5,49.6,49.6,0,0,0,17.9,1.71c14.88-2.36,27.79-6.55,36.22-19.74a40.25,40.25,0,0,0,5.55-14.79,53.9,53.9,0,0,0,.55-8.26V125.52a45,45,0,0,0-2.35-15.41l-.49-1.39-.62-1.33a33.59,33.59,0,0,0-13.07-14.6l0,0h0a38,38,0,0,0-12.84-4.71,51.85,51.85,0,0,0-13.14-.6Z"/><path class="cls-1" d="M462.46,204.71a22.78,22.78,0,0,1-12.08-2.93,21.27,21.27,0,0,1-7.2-6.59c-.54-.81-1.27-2-2.18-3.48l-1.68-2.87c-5.66.18-8.49.28-14.14.51-.68,1.21-1,1.81-1.69,3-1.05,1.81-1.88,3.14-2.62,4.19a24.66,24.66,0,0,1-6.42,6.18,23.72,23.72,0,0,1-12.4,4.07,31.85,31.85,0,0,1-12.42-2.21C375.24,199.48,373,190,373,184.68s2.34-10.11,4.14-13.27q15.84-28.65,31.78-57.25a26.91,26.91,0,0,1,10.35-10.31,28.27,28.27,0,0,1,13-3.74c9.82-.36,18.26,4.13,23.15,12.24q16,27.48,31.94,55c1.8,3,4.22,7.72,4.15,13-.15,9.83-7.73,17.55-16.56,21.2C470.26,203.5,466.23,204.63,462.46,204.71Z"/><path d="M432.31,115.93q6.36-.23,9.44,4.85,16,27.32,31.86,54.69,2,3.36,2,5c0,2.39-2.29,4.57-6.85,6.57a18.11,18.11,0,0,1-6.31,1.81,7.16,7.16,0,0,1-3.78-.81,6.27,6.27,0,0,1-2.12-1.84q-.66-1-1.83-2.94c-2.46-4.23-3.69-6.34-6.14-10.57q-16.35.51-32.68,1.19l-6.13,11q-1.18,2-1.83,3a8.19,8.19,0,0,1-2.12,1.94,7.19,7.19,0,0,1-3.78,1.14,17.09,17.09,0,0,1-6.3-1.35c-4.56-1.6-6.84-3.58-6.84-6,0-1.12.66-2.85,2-5.18q15.87-28.59,31.84-57.12a10,10,0,0,1,3.95-3.84,12.25,12.25,0,0,1,5.61-1.6m-7.91,42.93c6.28-.26,9.42-.37,15.69-.57-3.16-5.35-4.74-8-7.9-13.34-3.12,5.55-4.67,8.34-7.79,13.91m7.91-74.57a44.86,44.86,0,0,0-37.23,22.77q-15.9,28.66-31.71,57.38c-2.73,4.84-6.27,12.27-6.27,21.37,0,16.18,11.34,28.8,26.41,33.76a47.33,47.33,0,0,0,18.54,3.06,41,41,0,0,0,21-6.95,42.69,42.69,0,0,0,9.14-8.28,37.31,37.31,0,0,0,9.9,8.14,39.23,39.23,0,0,0,20.37,5A49.73,49.73,0,0,0,481.19,216c14.8-6.13,26.2-19.28,26.29-35.71,0-9.11-3.56-16.28-6.3-20.93q-15.84-27.53-31.77-55l-.11-.2-.12-.19c-7.25-13.15-22.35-20-36.87-19.73Z"/><path class="cls-1" d="M498.4,203.3a38.88,38.88,0,0,1-10.07-1.11,20.33,20.33,0,0,1-12.45-8.93,22.4,22.4,0,0,1-3.2-8.35,37.8,37.8,0,0,1-.37-5.84V145l-6.73.11a29.73,29.73,0,0,1-11.76-1.73,19.19,19.19,0,0,1-11.09-11.13,26.86,26.86,0,0,1-1.57-9.59,27.33,27.33,0,0,1,1.64-9.82,20.17,20.17,0,0,1,10.68-11.36,31,31,0,0,1,12.22-2.42q32.82-.52,65.63-.14a29.57,29.57,0,0,1,11.76,2.21,20.45,20.45,0,0,1,11.08,11.67,27.71,27.71,0,0,1,1.58,9.71,26.66,26.66,0,0,1-1.62,9.7,18.89,18.89,0,0,1-10.68,10.83A31.48,31.48,0,0,1,531.21,145l-6.61-.09v34.16a36.78,36.78,0,0,1-.38,5.89,22.67,22.67,0,0,1-3.2,8.24,20.44,20.44,0,0,1-12.6,9A39.62,39.62,0,0,1,498.4,203.3Z"/><path d="M531.33,114.76a15.33,15.33,0,0,1,5.55.84,4.18,4.18,0,0,1,2.36,2.38,12.39,12.39,0,0,1,.58,4.18,11.8,11.8,0,0,1-.58,4.11,3.54,3.54,0,0,1-2,2.1,16,16,0,0,1-6,.8c-9-.14-13.53-.18-22.54-.2v50a22.83,22.83,0,0,1-.18,3.38,7.26,7.26,0,0,1-1.06,2.53,5,5,0,0,1-3.13,2,23.62,23.62,0,0,1-5.9.6,23.11,23.11,0,0,1-5.85-.57,4.93,4.93,0,0,1-3.07-2,7.23,7.23,0,0,1-1.06-2.58,24.16,24.16,0,0,1-.17-3.42V129c-9.07.07-13.6.13-22.67.3a15.19,15.19,0,0,1-5.54-.63,3.89,3.89,0,0,1-2.36-2.28,12,12,0,0,1-.59-4.16,11.8,11.8,0,0,1,.59-4.14,3.72,3.72,0,0,1,2-2.18,16.28,16.28,0,0,1,6-1q32.82-.53,65.63-.14m0-31.64q-32.82-.39-65.63.14a46.2,46.2,0,0,0-18.45,3.85c-8.27,3.35-16.5,12.17-19.33,20.63h0a43,43,0,0,0-2.69,15.52,41.78,41.78,0,0,0,2.57,15c2.79,8.45,11.41,17,19.8,19.84a39.47,39.47,0,0,0,8.78,2.31v18.95a53.44,53.44,0,0,0,.55,8.24,37.65,37.65,0,0,0,5.37,14.13,36.21,36.21,0,0,0,21.82,15.72,54.79,54.79,0,0,0,14.28,1.64,56.1,56.1,0,0,0,14.12-1.64,36.46,36.46,0,0,0,22.08-15.86h0A37.78,37.78,0,0,0,540,187.7a52.51,52.51,0,0,0,.58-8.4V160.21a41.13,41.13,0,0,0,9.13-2.44c8.18-2.86,16.52-11.21,19.33-19.41l0,0v0A41.56,41.56,0,0,0,571.68,123a43.57,43.57,0,0,0-2.54-15.18l0,0v0c-2.83-8.68-11.32-17.68-19.79-21a45.16,45.16,0,0,0-18-3.61Z"/><path class="cls-1" d="M614.49,206.54a39.94,39.94,0,0,1-10-1.72A22.11,22.11,0,0,1,592,195.14a23.67,23.67,0,0,1-3.2-8.53,38.56,38.56,0,0,1-.36-5.87V146.68l-6.73-.28A30.8,30.8,0,0,1,570,144a20.84,20.84,0,0,1-11.09-11.78,27.9,27.9,0,0,1-1.57-9.69,26.4,26.4,0,0,1,1.63-9.7A18.51,18.51,0,0,1,569.6,102a30.16,30.16,0,0,1,12.23-1.69q32.8,1.45,65.54,3.81a30.68,30.68,0,0,1,11.73,2.91,22.31,22.31,0,0,1,11.06,12.34,28.56,28.56,0,0,1,1.58,9.81,25.79,25.79,0,0,1-1.62,9.59A17.28,17.28,0,0,1,659.47,149a30.53,30.53,0,0,1-12.22,1.2l-6.6-.49v34.16a35.09,35.09,0,0,1-.38,5.86,21,21,0,0,1-3.19,8.05A18.82,18.82,0,0,1,624.5,206,39.28,39.28,0,0,1,614.49,206.54Z"/><path d="M647.37,120a15.76,15.76,0,0,1,5.54,1.17,4.51,4.51,0,0,1,2.35,2.52,12.74,12.74,0,0,1,.59,4.22,11.41,11.41,0,0,1-.59,4.07,3.2,3.2,0,0,1-2,2,15.67,15.67,0,0,1-6,.44c-9-.68-13.5-1-22.5-1.56v50a22.58,22.58,0,0,1-.18,3.37,6.82,6.82,0,0,1-1.06,2.47,4.6,4.6,0,0,1-3.12,1.84,29.49,29.49,0,0,1-11.73-.68,5.3,5.3,0,0,1-3.07-2.2,7.61,7.61,0,0,1-1.06-2.64,24.16,24.16,0,0,1-.18-3.44V131.64c-9.05-.48-13.58-.69-22.64-1.06a15.79,15.79,0,0,1-5.54-1,4.24,4.24,0,0,1-2.36-2.42,12.28,12.28,0,0,1-.59-4.2,11.48,11.48,0,0,1,.59-4.1,3.4,3.4,0,0,1,2-2.06,15.84,15.84,0,0,1,6-.66q32.8,1.45,65.54,3.81m0-31.64Q614.61,86,581.83,84.53a45,45,0,0,0-18.46,2.74c-8.23,2.83-16.54,11.27-19.33,19.49a41.9,41.9,0,0,0-2.68,15.33,43.24,43.24,0,0,0,2.56,15.19c2.84,8.69,11.38,17.63,19.82,21a42.24,42.24,0,0,0,8.77,2.83V180.1a54.36,54.36,0,0,0,.55,8.28,40,40,0,0,0,5.36,14.44c4.24,7.61,13.46,14.68,21.81,17a56.36,56.36,0,0,0,14.26,2.5,54.84,54.84,0,0,0,14.12-.8,33.59,33.59,0,0,0,22-14.52h0A35.65,35.65,0,0,0,656,193.43a50.69,50.69,0,0,0,.58-8.36V166a40,40,0,0,0,9.11-1.89,31.11,31.11,0,0,0,19.28-18.25l0,0v0a40.49,40.49,0,0,0,2.65-15.09,45.12,45.12,0,0,0-2.53-15.33l0,0v0c-2.86-8.92-11.25-18.33-19.74-22.24a46.54,46.54,0,0,0-18-4.69Z"/><path class="cls-1" d="M724.65,216c-10-.58-20.68-6.71-24.36-16.29a26.76,26.76,0,0,1-1.52-6c0,.26-.06.51-.1.75a20.43,20.43,0,0,1-3.33,8.23c-4.19,6.29-12.1,8.62-22.66,8-9.61-.57-20.69-6.12-24.4-15.62a30.14,30.14,0,0,1-1.85-11.19V128.75a37.26,37.26,0,0,1,.36-5.79,21.31,21.31,0,0,1,3.33-8.35c4.2-6.39,11.9-9.29,22.68-8.27,10.15,1,20.39,5.83,24.43,15.75l.18.45.16.47a27,27,0,0,1,1.15,5.15q0-.33.09-.63a20.46,20.46,0,0,1,3.38-8.3,17.82,17.82,0,0,1,12.49-7.6,36.25,36.25,0,0,1,9.74,0,40.16,40.16,0,0,1,9.22,2.05,29,29,0,0,1,7.94,4.31,24.41,24.41,0,0,1,7.34,9.55c.13.3.19.45.32.74l.25.76a32.85,32.85,0,0,1,1.45,10.51v55.14a37.08,37.08,0,0,1-.36,5.79,20.13,20.13,0,0,1-3.32,8.16C743.07,214.78,735.48,217.25,724.65,216Z"/><path d="M724.42,127.42a24,24,0,0,1,5.4,1.13,11.4,11.4,0,0,1,3,1.56,5.45,5.45,0,0,1,1.65,2.18,17.72,17.72,0,0,1,.58,5.24v55.14a25.41,25.41,0,0,1-.17,3.41,6.3,6.3,0,0,1-1.12,2.49q-1.65,2.49-9.16,1.61c-5.48-.64-8.69-2.22-9.63-4.77a14.84,14.84,0,0,1-.71-5.24V170q-15.55-1.74-31.15-3.18v20.27a23.58,23.58,0,0,1-.18,3.41,6.46,6.46,0,0,1-1.12,2.52c-1.1,1.69-4.15,2.3-9.17,1.86-5.5-.49-8.72-2-9.66-4.51a14.74,14.74,0,0,1-.7-5.23V130a25.51,25.51,0,0,1,.17-3.41,6.59,6.59,0,0,1,1.12-2.54c1.1-1.7,4.16-2.34,9.18-1.89,5.49.48,8.75,2,9.77,4.56a17.51,17.51,0,0,1,.59,5.22v20.27q15.58,1.46,31.15,3.18V135a23.42,23.42,0,0,1,.18-3.4,6.37,6.37,0,0,1,1.12-2.51,4.39,4.39,0,0,1,3.17-1.74,21.81,21.81,0,0,1,5.64,0m0-31.64a50.5,50.5,0,0,0-13.84.12,33.86,33.86,0,0,0-11.87,4.2c-6.73-5.51-17.35-9.18-25.91-9.58-14.4.11-27.45,1.93-36.17,14.74a35.78,35.78,0,0,0-5.55,14.15v.07a52.41,52.41,0,0,0-.54,8.15v55.14a46.12,46.12,0,0,0,3,17.12A41.08,41.08,0,0,0,654.8,222a53.32,53.32,0,0,0,17.89,4.51c11.73,1,20.13-1.17,26.12-4.66a45,45,0,0,0,8,5,54.27,54.27,0,0,0,17.85,5c14.06.35,27.27-.91,36-13.08a33.56,33.56,0,0,0,5.53-13.8,52,52,0,0,0,.55-8.17V141.63a49.21,49.21,0,0,0-2.32-15.81l-.5-1.5c-.25-.59-.37-.88-.63-1.46a43.48,43.48,0,0,0-13-17,46.68,46.68,0,0,0-12.79-7.08h0a56.05,56.05,0,0,0-13-3Z"/><path class="cls-1" d="M754.81,219.83c-10-.76-20.57-7.11-24.29-16.67a30.54,30.54,0,0,1-1.87-11.26V136.66c0-10.35,4.34-15.59,8-18.15,5.93-4.17,13.42-3.78,18.53-3.11q23.12,3.13,46.15,6.66a56.56,56.56,0,0,1,5.77,1.15,29.68,29.68,0,0,1,7.81,3.49c8.31,5.12,12.57,14.71,12.48,24.28-.14,14.35-8.22,18.88-13.22,20.24a35.76,35.76,0,0,1,.37,5.23,30.47,30.47,0,0,1-.4,5c.26.14.51.29.76.45,8.32,5.11,12.16,15.15,12.49,24.28.34,9.51-6,19.36-15.7,20.73a36.2,36.2,0,0,1-10.48-.44Q778,222.87,754.81,219.83Z"/><path d="M801.31,137.88c1.79.28,3.14.54,4,.78a12.06,12.06,0,0,1,3.1,1.44q3.16,1.91,3.16,8.26,0,7-4.33,7.45a22.57,22.57,0,0,1-6.08-.37q-17.94-2.81-35.94-5.27v10c9.28,1.28,13.92,1.94,23.19,3.33a40.66,40.66,0,0,1,4,.76,12,12,0,0,1,3.1,1.41c2.1,1.25,3.16,4,3.16,8.24,0,4.64-1.49,7.12-4.45,7.46a22.54,22.54,0,0,1-6.09-.32c-9.17-1.37-13.76-2-23-3.29v10q18,2.48,36.06,5.3c1.79.28,3.14.54,4,.78a12.06,12.06,0,0,1,3.1,1.44q3.16,1.91,3.16,8.26c0,4.63-1.44,7.12-4.33,7.45a22.57,22.57,0,0,1-6.08-.37Q778,207.05,754.81,204c-5.47-.72-8.68-2.38-9.62-5a14.16,14.16,0,0,1-.7-5.16V138.59c0-3.38.74-5.58,2.23-6.62s4.3-1.29,8.44-.74q23.12,3.12,46.15,6.65m0-31.65q-23.05-3.53-46.15-6.65c-8.83-1.72-21.22,0-28.62,5.53C717,112,713,123.45,712.79,134.86V190.1a46.49,46.49,0,0,0,3,17.3,43.68,43.68,0,0,0,20.9,22.82,54.73,54.73,0,0,0,18.09,5.43q23.24,3.07,46.38,6.68a52.16,52.16,0,0,0,14.82.54,29.25,29.25,0,0,0,22.34-14.36c3.17-5.42,4.77-12,4.77-19.54A49,49,0,0,0,840,191.34a46.66,46.66,0,0,0-6.56-11.78,29.6,29.6,0,0,0,4.91-6.29c3.17-5.42,4.77-12,4.77-19.54A49,49,0,0,0,840,136.1c-3-8.73-10.67-18.16-18.67-22.77a47.83,47.83,0,0,0-12.53-5.57,72,72,0,0,0-7.49-1.53Z"/><path class="cls-2" d="M269.19,206.28a14.36,14.36,0,0,1-8.58-1.34,11.42,11.42,0,0,1-5-4.4l-.11-.19c-3.75-8.9-5.63-13.34-9.39-22.22-5.62,14.83-8.69,23-8.83,23.32a14.46,14.46,0,0,1-1.67,3,21,21,0,0,1-2.61,3.13,16.77,16.77,0,0,1-9.51,4.78,15,15,0,0,1-8.64-.93,10.65,10.65,0,0,1-4.88-4c-.38-.63-.57-.94-.94-1.57Q197.74,180,186.39,154.14a16.92,16.92,0,0,1-1.64-6.4c0-5,3.78-9.28,11.24-12.65a29,29,0,0,1,7.46-2.37c4-.63,6.38.7,7.69,1.92a15.22,15.22,0,0,1,3.59,5.89c3.38,8.2,5.07,12.3,8.45,20.52,3.34-9,5-13.54,8.34-22.55a17.7,17.7,0,0,1,8.76-9.71,20.46,20.46,0,0,1,6.5-1.87,13.71,13.71,0,0,1,8.12,1.32A10.44,10.44,0,0,1,260,132.9l.08.18c3.62,8.78,5.43,13.18,9,22,3.41-9.21,5.11-13.81,8.51-23,.74-1.88,1.31-3.19,1.78-4.12a12.68,12.68,0,0,1,3.74-4.28,12.82,12.82,0,0,1,6.55-2.57,22.41,22.41,0,0,1,6.95.46c7.38,1.48,11.21,4.74,11.21,9.71,0,1.54-.52,3.57-1.74,6.79q-11.3,28.76-22.54,57.52a15.94,15.94,0,0,1-1.18,2.55,16.14,16.14,0,0,1-4.61,4.74A17.27,17.27,0,0,1,269.19,206.28Z"/><path class="cls-3" d="M289.68,125.83a17.67,17.67,0,0,1,5.53.39c5.24,1,7.87,2.87,7.87,5.52a18.28,18.28,0,0,1-1.41,5q-11.3,28.8-22.56,57.63a10.88,10.88,0,0,1-.82,1.79,12.6,12.6,0,0,1-3.11,3,12.15,12.15,0,0,1-6,2.36,10,10,0,0,1-6-.91,7.83,7.83,0,0,1-3.34-2.8q-6.86-16.26-13.72-32.49-6.63,17.49-13.25,35a10,10,0,0,1-1,1.84,14.39,14.39,0,0,1-1.88,2.25,11.24,11.24,0,0,1-6.44,3.22,10.82,10.82,0,0,1-6.15-.58,7.18,7.18,0,0,1-3.21-2.5c-.33-.55-.5-.82-.82-1.37q-11.28-25.8-22.57-51.58a13.45,13.45,0,0,1-1.29-4.66c0-2.65,2.61-5.17,7.83-7.53a24.56,24.56,0,0,1,6.14-2,4.81,4.81,0,0,1,4.21.94,11.76,11.76,0,0,1,2.63,4.46q6.45,15.63,12.88,31.26,6.38-17.26,12.77-34.51a11.74,11.74,0,0,1,6-6.59,15.54,15.54,0,0,1,4.86-1.35,9.38,9.38,0,0,1,5.57.9,6.88,6.88,0,0,1,3.29,2.81q6.75,16.38,13.49,32.78,6.45-17.46,12.92-34.91c.62-1.6,1.13-2.78,1.52-3.55a7.45,7.45,0,0,1,2.18-2.39,7.65,7.65,0,0,1,3.93-1.48m0-9.49a17.94,17.94,0,0,0-9.17,3.65,18.3,18.3,0,0,0-5.32,6.2c-.55,1.08-1.17,2.51-1.94,4.49l0,.09,0,.1c-1.63,4.43-2.45,6.65-4.09,11.09-1.84-4.47-2.76-6.7-4.59-11.16l-.08-.19-.09-.18a14.18,14.18,0,0,0-6.87-6.53,17.94,17.94,0,0,0-10.67-1.72,25.05,25.05,0,0,0-8.16,2.39,23.23,23.23,0,0,0-11.51,12.82c-1.57,4.23-2.35,6.35-3.91,10.58l-4-9.77a18.91,18.91,0,0,0-4.54-7.3c-2-1.83-5.48-3.82-11.18-2.93a34.69,34.69,0,0,0-8.79,2.77c-12.74,5.78-14.64,13.65-14.64,17.8a20.57,20.57,0,0,0,1.94,8l0,.05,0,.06q11.3,25.74,22.56,51.48l.21.47.26.43.81,1.37a14.37,14.37,0,0,0,6.53,5.47,19.32,19.32,0,0,0,11.14,1.25,22.4,22.4,0,0,0,12.58-6.33,26.4,26.4,0,0,0,3.33-4,20.15,20.15,0,0,0,2.29-4.21c.12-.34,1.64-4.34,4.43-11.69L251,202.49l.17.4.2.37a15.23,15.23,0,0,0,6.61,6A18.8,18.8,0,0,0,269.19,211a22.71,22.71,0,0,0,11.17-4.5c3.08-2.36,4.91-4.29,6.12-6.46a23.45,23.45,0,0,0,1.52-3.3q11.22-28.68,22.49-57.33l0-.06,0,0c1.47-3.88,2.07-6.36,2.07-8.55,0-5-2.53-11.55-14.59-13.93a26.27,26.27,0,0,0-8.33-.51Z"/><path class="cls-2" d="M371.94,196.55c-7.62.52-12.34-1.41-14.09-5.65a17.89,17.89,0,0,1-1.05-6.85V168.63c-8.67.65-13,1-21.67,1.76v15.52a28.2,28.2,0,0,1-.23,4.16,13,13,0,0,1-1.79,4.6c-2.71,4.59-8.84,5.7-13.21,6.12-7.61.72-12.32-1.08-14.07-5.28a17.83,17.83,0,0,1-1-6.82V133.55a28.35,28.35,0,0,1,.23-4.17,13.15,13.15,0,0,1,1.79-4.63c2.7-4.61,8.83-5.78,13.2-6.19,7.58-.72,12.35,1.09,14.17,5.31l.06.12,0,.13a20,20,0,0,1,.85,6.65v15.52c8.67-.75,13-1.11,21.67-1.76V128.91a29.83,29.83,0,0,1,.23-4.17,12.65,12.65,0,0,1,1.8-4.58,10.83,10.83,0,0,1,6-4.58,27.47,27.47,0,0,1,6.89-1.23,26.51,26.51,0,0,1,6.57.2,13.39,13.39,0,0,1,4.54,1.55,8.48,8.48,0,0,1,3.37,3.77l.09.2.08.21a20.18,20.18,0,0,1,.85,6.67v55.14a29.47,29.47,0,0,1-.23,4.16,12.85,12.85,0,0,1-1.8,4.55C382.46,195.31,376.32,196.25,371.94,196.55Z"/><path class="cls-3" d="M371.7,119.09a23.33,23.33,0,0,1,5.42.14,9.68,9.68,0,0,1,3.07,1,4.27,4.27,0,0,1,1.65,1.89,16.49,16.49,0,0,1,.59,5.13v55.14a24.25,24.25,0,0,1-.18,3.44,7.64,7.64,0,0,1-1.12,2.7c-1.1,1.86-4.17,2.94-9.19,3.28q-8.25.57-9.66-3a13.77,13.77,0,0,1-.71-5.12V163.52q-15.61,1.14-31.2,2.54v20.27a24.16,24.16,0,0,1-.18,3.44,7.87,7.87,0,0,1-1.12,2.74c-1.1,1.89-4.16,3.05-9.17,3.53-5.49.52-8.71-.38-9.65-2.74a13.56,13.56,0,0,1-.7-5.09V133.07a26.53,26.53,0,0,1,.17-3.45,7.94,7.94,0,0,1,1.12-2.74q1.65-2.85,9.17-3.58c5.49-.52,8.75.42,9.77,2.78a16.3,16.3,0,0,1,.59,5.11v20.27q15.58-1.41,31.2-2.54V128.55a24.25,24.25,0,0,1,.18-3.44,7.57,7.57,0,0,1,1.12-2.71,5.6,5.6,0,0,1,3.18-2.32,23.16,23.16,0,0,1,5.65-1m0-9.49a31.63,31.63,0,0,0-8.12,1.49,16,16,0,0,0-8.79,6.86,17.41,17.41,0,0,0-2.47,6.42,32.55,32.55,0,0,0-.29,4.9v10.88c-4.85.38-7.28.58-12.13,1V130.36a24.22,24.22,0,0,0-1.11-8.18l-.1-.26-.11-.25c-1.81-4.2-6.5-9-18.57-7.86-3.17.3-12.8,1.25-17.25,8.87a17.9,17.9,0,0,0-2.45,6.46,34,34,0,0,0-.29,4.91v55.14a21.69,21.69,0,0,0,1.39,8.54c1.75,4.25,6.38,9,18.49,7.8,3.17-.3,12.81-1.18,17.27-8.72a17.77,17.77,0,0,0,2.44-6.41,32.46,32.46,0,0,0,.29-4.9V174.73c4.85-.41,7.28-.61,12.13-1v10.67a21.76,21.76,0,0,0,1.39,8.58c1.75,4.3,6.39,9.13,18.52,8.31,3.18-.22,12.83-.84,17.3-8.26a17.2,17.2,0,0,0,2.44-6.35,32,32,0,0,0,.29-4.88V126.67a24.49,24.49,0,0,0-1.11-8.21l-.15-.42-.19-.39a12.89,12.89,0,0,0-5.07-5.67,18,18,0,0,0-6-2.11,31.46,31.46,0,0,0-7.74-.27Z"/><path class="cls-2" d="M462.46,193.63a11.74,11.74,0,0,1-6.27-1.45,10.74,10.74,0,0,1-3.65-3.26c-.47-.71-1.1-1.73-1.93-3.11l-4.8-8.25c-10.85.32-16.27.52-27.12,1-1.9,3.41-2.86,5.12-4.76,8.54-.9,1.56-1.58,2.66-2.1,3.41a13.52,13.52,0,0,1-3.42,3.22,12.17,12.17,0,0,1-6.36,2,22,22,0,0,1-8.17-1.62c-6.39-2.29-9.75-5.67-9.75-10.16,0-2.07.83-4.42,2.67-7.64q15.85-28.59,31.8-57.12a15,15,0,0,1,5.87-5.77,17.08,17.08,0,0,1,7.84-2.25c5.95-.21,10.63,2.24,13.55,7.06q16,27.38,31.9,54.82c1.81,3,2.63,5.33,2.63,7.39,0,4.46-3.28,8.14-9.75,11A22.12,22.12,0,0,1,462.46,193.63Z"/><path class="cls-3" d="M432.31,115.93q6.36-.23,9.44,4.85,16,27.32,31.86,54.69,2,3.36,2,5c0,2.39-2.29,4.57-6.85,6.57a18.11,18.11,0,0,1-6.31,1.81,7.16,7.16,0,0,1-3.78-.81,6.27,6.27,0,0,1-2.12-1.84q-.66-1-1.83-2.94c-2.46-4.23-3.69-6.34-6.14-10.57q-16.35.51-32.68,1.19l-6.13,11q-1.18,2-1.83,3a8.19,8.19,0,0,1-2.12,1.94,7.19,7.19,0,0,1-3.78,1.14,17.17,17.17,0,0,1-6.31-1.35c-4.55-1.6-6.83-3.58-6.83-6,0-1.12.66-2.85,2-5.18q15.87-28.59,31.84-57.12a10,10,0,0,1,3.95-3.84,12.25,12.25,0,0,1,5.61-1.6m-7.91,42.93c6.28-.26,9.42-.37,15.69-.57-3.16-5.35-4.74-8-7.9-13.34-3.12,5.55-4.67,8.34-7.79,13.91m7.91-52.42a21.9,21.9,0,0,0-10.06,2.88,19.9,19.9,0,0,0-7.82,7.75q-15.94,28.55-31.78,57.16c-2.27,4-3.29,7.08-3.29,10,0,4.53,2.21,10.66,12.71,14.35a25.32,25.32,0,0,0,10,1.87,17.08,17.08,0,0,0,8.94-2.89,18.12,18.12,0,0,0,4.7-4.49c.64-.9,1.37-2.08,2.31-3.72l0-.06,0-.07c1.36-2.43,2-3.65,3.39-6.07,8.62-.37,12.93-.52,21.56-.79,1.35,2.33,2,3.49,3.39,5.82l0,.07,0,.06c.87,1.43,1.54,2.51,2.06,3.28a15.34,15.34,0,0,0,5.15,4.68,16.49,16.49,0,0,0,8.76,2.08,26.82,26.82,0,0,0,10-2.62c10.48-4.58,12.67-10.86,12.67-15.36,0-2.94-1-6-3.29-9.79Q466,143.19,450.05,115.83l0-.06,0-.06c-3.76-6.24-10-9.55-17.66-9.27Z"/><path class="cls-2" d="M498.4,192.23a28.13,28.13,0,0,1-7.11-.74,9.51,9.51,0,0,1-5.89-4.1,11.72,11.72,0,0,1-1.7-4.31,27.78,27.78,0,0,1-.23-4.15V133.8c-7.16.07-10.73.12-17.89.26a19.1,19.1,0,0,1-7.41-1,8.49,8.49,0,0,1-5-4.94,19.44,19.44,0,0,1,0-11.63,8.64,8.64,0,0,1,4.61-4.93,20.4,20.4,0,0,1,7.88-1.43q32.82-.52,65.63-.14a19.19,19.19,0,0,1,7.41,1.24,9,9,0,0,1,5,5.16,16.74,16.74,0,0,1,.88,5.84,16,16,0,0,1-.9,5.79,8.13,8.13,0,0,1-4.6,4.73,20.62,20.62,0,0,1-7.89,1.13c-7.11-.1-10.66-.14-17.76-.18V179a27,27,0,0,1-.24,4.13,11.6,11.6,0,0,1-1.71,4.25,9.58,9.58,0,0,1-6,4.13A29,29,0,0,1,498.4,192.23Z"/><path class="cls-3" d="M531.33,114.76a15.33,15.33,0,0,1,5.55.84,4.18,4.18,0,0,1,2.36,2.38,12.37,12.37,0,0,1,.59,4.18,11.77,11.77,0,0,1-.59,4.11,3.54,3.54,0,0,1-2,2.1,16,16,0,0,1-6,.8c-9-.14-13.53-.18-22.54-.2v50a22.83,22.83,0,0,1-.18,3.38,7.26,7.26,0,0,1-1.06,2.53,5,5,0,0,1-3.13,2,23.62,23.62,0,0,1-5.9.6,23.11,23.11,0,0,1-5.85-.57,4.93,4.93,0,0,1-3.07-2,7.23,7.23,0,0,1-1.06-2.58,24.16,24.16,0,0,1-.17-3.42V129c-9.07.07-13.6.13-22.67.3a15.19,15.19,0,0,1-5.54-.63,3.89,3.89,0,0,1-2.36-2.28,12,12,0,0,1-.59-4.16,11.8,11.8,0,0,1,.59-4.14,3.72,3.72,0,0,1,2-2.18,16.28,16.28,0,0,1,6-1q32.82-.53,65.63-.14m0-9.49q-32.82-.39-65.63.14a25.11,25.11,0,0,0-9.75,1.86,13.63,13.63,0,0,0-7.21,7.69,21.09,21.09,0,0,0-1.21,7.53,20.85,20.85,0,0,0,1.19,7.44,13.1,13.1,0,0,0,7.59,7.58,23.8,23.8,0,0,0,9.27,1.3c5.24-.11,7.86-.15,13.11-.21V179a31.67,31.67,0,0,0,.29,4.87,16,16,0,0,0,2.35,6.06,14.14,14.14,0,0,0,8.69,6.17,32.59,32.59,0,0,0,8.38.89,33.14,33.14,0,0,0,8.37-.91,14.24,14.24,0,0,0,8.82-6.23,16.32,16.32,0,0,0,2.34-6,31.7,31.7,0,0,0,.29-4.89V138.51c5.2,0,7.8.07,13,.15a25,25,0,0,0,9.75-1.48,12.71,12.71,0,0,0,7.2-7.33,20.4,20.4,0,0,0,1.22-7.48,21.46,21.46,0,0,0-1.17-7.47,14,14,0,0,0-7.6-8,23.64,23.64,0,0,0-9.28-1.66Z"/><path class="cls-2" d="M614.49,195.46a27.91,27.91,0,0,1-7.1-1.16,10.28,10.28,0,0,1-5.87-4.46,12.27,12.27,0,0,1-1.71-4.41,28.11,28.11,0,0,1-.23-4.16V136.14c-7.15-.36-10.72-.53-17.87-.82a19.77,19.77,0,0,1-7.41-1.41,9.24,9.24,0,0,1-5-5.24,17,17,0,0,1-.88-5.85,15.82,15.82,0,0,1,.9-5.77,7.91,7.91,0,0,1,4.61-4.66,19.71,19.71,0,0,1,7.88-1q32.8,1.44,65.54,3.8a20.15,20.15,0,0,1,7.4,1.69,9.8,9.8,0,0,1,5,5.46,17.22,17.22,0,0,1,.89,5.89,15.57,15.57,0,0,1-.9,5.74,7.43,7.43,0,0,1-4.6,4.45,19.94,19.94,0,0,1-7.87.66c-7.09-.53-10.63-.78-17.73-1.25V183.1a26.73,26.73,0,0,1-.24,4.12,11,11,0,0,1-1.7,4.14,8.78,8.78,0,0,1-6,3.77A28,28,0,0,1,614.49,195.46Z"/><path class="cls-3" d="M647.37,120a15.76,15.76,0,0,1,5.54,1.17,4.51,4.51,0,0,1,2.35,2.52,12.74,12.74,0,0,1,.59,4.22,11.41,11.41,0,0,1-.59,4.07,3.2,3.2,0,0,1-2,2,15.67,15.67,0,0,1-6,.44c-9-.68-13.5-1-22.5-1.56v50a22.58,22.58,0,0,1-.18,3.37,6.82,6.82,0,0,1-1.06,2.47,4.6,4.6,0,0,1-3.12,1.84,29.49,29.49,0,0,1-11.73-.68,5.3,5.3,0,0,1-3.07-2.2,7.61,7.61,0,0,1-1.06-2.64,24.16,24.16,0,0,1-.18-3.44V131.64c-9.05-.48-13.58-.69-22.64-1.06a15.79,15.79,0,0,1-5.54-1,4.24,4.24,0,0,1-2.36-2.42,12.28,12.28,0,0,1-.59-4.2,11.48,11.48,0,0,1,.59-4.1,3.4,3.4,0,0,1,2-2.06,15.84,15.84,0,0,1,6-.66q32.8,1.45,65.54,3.81m0-9.49q-32.75-2.35-65.54-3.81a24.33,24.33,0,0,0-9.75,1.27,12.45,12.45,0,0,0-7.2,7.26,20.39,20.39,0,0,0-1.22,7.46,21.67,21.67,0,0,0,1.18,7.5,14.26,14.26,0,0,0,7.6,8,24.36,24.36,0,0,0,9.27,1.86c5.24.21,7.86.33,13.09.58V181a33.49,33.49,0,0,0,.29,4.89,17.35,17.35,0,0,0,2.35,6.2,15.38,15.38,0,0,0,8.69,6.69,33.15,33.15,0,0,0,8.36,1.4,32.39,32.39,0,0,0,8.36-.42,13.1,13.1,0,0,0,8.81-5.69,15.21,15.21,0,0,0,2.33-5.81,29.94,29.94,0,0,0,.3-4.87V142.94c5.19.35,7.78.54,13,.93A24.48,24.48,0,0,0,657,143a11.75,11.75,0,0,0,7.19-6.9,20,20,0,0,0,1.21-7.41,22.07,22.07,0,0,0-1.17-7.54,15.23,15.23,0,0,0-7.58-8.43,24.5,24.5,0,0,0-9.26-2.21Z"/><path class="cls-2" d="M724.65,204.92c-7.59-.88-12.3-3.67-14-8.24a19.64,19.64,0,0,1-1-7V174.22c-8.65-.93-13-1.37-21.64-2.2v15.52a27.3,27.3,0,0,1-.23,4.13,10.86,10.86,0,0,1-1.79,4.26c-2.71,4.09-8.84,4.08-13.22,3.69-7.6-.67-12.32-3.34-14.07-7.85a19.2,19.2,0,0,1-1.05-7V129.61a27.51,27.51,0,0,1,.23-4.12,11,11,0,0,1,1.79-4.3c2.71-4.12,8.84-4.17,13.22-3.78,7.58.67,12.34,3.35,14.17,7.91l0,.14.05.14a21.43,21.43,0,0,1,.85,6.8v15.52c8.66.83,13,1.28,21.64,2.21V134.51a27.3,27.3,0,0,1,.23-4.13,10.48,10.48,0,0,1,1.79-4.25,8.41,8.41,0,0,1,6-3.48,25.85,25.85,0,0,1,6.87,0,28.84,28.84,0,0,1,6.54,1.4,16.41,16.41,0,0,1,4.52,2.38,11,11,0,0,1,3.36,4.39l.09.22.08.22a21.77,21.77,0,0,1,.84,6.82v55.14a27.15,27.15,0,0,1-.23,4.12,10.48,10.48,0,0,1-1.79,4.22C735.14,205.6,729,205.43,724.65,204.92Z"/><path class="cls-3" d="M724.42,127.42a24,24,0,0,1,5.4,1.13,11.4,11.4,0,0,1,3,1.56,5.45,5.45,0,0,1,1.65,2.18,17.72,17.72,0,0,1,.58,5.24v55.14a25.41,25.41,0,0,1-.17,3.41,6.24,6.24,0,0,1-1.12,2.49q-1.65,2.49-9.16,1.61c-5.48-.64-8.69-2.22-9.63-4.77a14.84,14.84,0,0,1-.71-5.24V170q-15.55-1.74-31.15-3.18v20.27a23.58,23.58,0,0,1-.18,3.41,6.46,6.46,0,0,1-1.12,2.52c-1.1,1.69-4.15,2.3-9.18,1.85-5.49-.48-8.71-2-9.65-4.5a14.74,14.74,0,0,1-.7-5.23V130a25.51,25.51,0,0,1,.17-3.41,6.59,6.59,0,0,1,1.12-2.54c1.1-1.7,4.16-2.34,9.18-1.89,5.49.48,8.75,2,9.77,4.56a17.51,17.51,0,0,1,.59,5.22v20.27q15.58,1.46,31.15,3.18V135a23.42,23.42,0,0,1,.18-3.4,6.37,6.37,0,0,1,1.12-2.51,4.39,4.39,0,0,1,3.17-1.74,21.81,21.81,0,0,1,5.64,0m0-9.49a30.33,30.33,0,0,0-8.1,0,12.48,12.48,0,0,0-8.77,5.24,14.69,14.69,0,0,0-2.47,6,32.43,32.43,0,0,0-.28,4.83v10.87c-4.85-.51-7.27-.75-12.12-1.23V132.86a26.08,26.08,0,0,0-1.11-8.38l-.09-.28-.11-.27c-1.81-4.53-6.5-10.2-18.57-11.26-3.17-.28-12.82-1.1-17.27,5.7a15,15,0,0,0-2.45,6,31.79,31.79,0,0,0-.29,4.86v55.14a23.54,23.54,0,0,0,1.39,8.8c1.75,4.57,6.4,10.12,18.5,11.19,3.18.28,12.82,1.17,17.27-5.56a14.66,14.66,0,0,0,2.45-6,32.58,32.58,0,0,0,.28-4.84V177.23c4.85.48,7.27.72,12.12,1.23v10.68a24,24,0,0,0,1.38,8.83c1.75,4.62,6.38,10.3,18.47,11.7,3.17.37,12.79,1.52,17.23-5.09a14.39,14.39,0,0,0,2.44-5.9,31,31,0,0,0,.29-4.83V138.71a26.36,26.36,0,0,0-1.11-8.41l-.15-.45-.19-.43a16.81,16.81,0,0,0-5.06-6.6,21.54,21.54,0,0,0-6-3.2,33.22,33.22,0,0,0-7.71-1.69Z"/><path class="cls-2" d="M754.81,208.75c-7.56-1-12.24-3.93-14-8.53a19.35,19.35,0,0,1-1-7V138c0-4.85,1.33-8.24,4-10.07,2.42-1.69,6.07-2.16,11.47-1.45q23.12,3.12,46.15,6.65a44.19,44.19,0,0,1,4.55.9,17.41,17.41,0,0,1,4.53,2.06c3.9,2.37,5.94,6.77,5.94,13,0,9.15-4.85,11.08-7.75,11.45a27.06,27.06,0,0,1-7.39-.39q-15.57-2.44-31.2-4.62v.54c7.38,1,11.07,1.57,18.45,2.67a43.79,43.79,0,0,1,4.56.87,17.56,17.56,0,0,1,4.53,2c3.9,2.34,5.94,6.73,5.94,13,0,9.15-4.94,11.1-7.89,11.49a27.47,27.47,0,0,1-7.38-.35c-7.28-1.08-10.92-1.61-18.21-2.63v.54q15.68,2.18,31.32,4.64a45.34,45.34,0,0,1,4.55.9,17.6,17.6,0,0,1,4.53,2.06c3.9,2.37,5.94,6.77,5.94,13,0,9.15-4.85,11.08-7.75,11.45a27.43,27.43,0,0,1-7.39-.39Q778,211.79,754.81,208.75Z"/><path class="cls-3" d="M801.31,137.88c1.79.28,3.14.54,4,.78a12.06,12.06,0,0,1,3.1,1.44q3.16,1.91,3.16,8.26,0,7-4.33,7.45a22.57,22.57,0,0,1-6.08-.37q-17.94-2.81-35.94-5.27v10c9.28,1.28,13.92,1.94,23.19,3.33a40.66,40.66,0,0,1,4,.76,12,12,0,0,1,3.1,1.41c2.1,1.25,3.16,4,3.16,8.24,0,4.64-1.49,7.12-4.45,7.46a22.54,22.54,0,0,1-6.09-.32c-9.17-1.37-13.76-2-23-3.29v10q18,2.48,36.06,5.3c1.79.28,3.14.54,4,.78a12.06,12.06,0,0,1,3.1,1.44q3.16,1.91,3.16,8.26c0,4.63-1.44,7.12-4.33,7.45a22.57,22.57,0,0,1-6.08-.37Q778,207.05,754.81,204c-5.47-.72-8.68-2.38-9.62-5a14.16,14.16,0,0,1-.7-5.16V138.59c0-3.38.74-5.58,2.23-6.62s4.3-1.29,8.44-.74q23.12,3.12,46.15,6.65m0-9.5q-23.05-3.52-46.15-6.65c-6.57-.86-11.18-.17-14.49,2.16-3.77,2.64-5.69,7.2-5.69,13.53v55.24a23.37,23.37,0,0,0,1.41,8.81c1.77,4.7,6.42,10.45,18.42,12q23.24,3.08,46.38,6.68a31.2,31.2,0,0,0,8.7.41c3.45-.42,11.17-2.76,11.17-15.43,0-10.87-5.46-15.86-8.76-17.86a22.86,22.86,0,0,0-5.91-2.67l-.12,0a19.49,19.49,0,0,0,1.94-9.17,24.16,24.16,0,0,0-1.93-10,20.69,20.69,0,0,0,3.61-.13c3.45-.42,11.17-2.76,11.17-15.43,0-10.87-5.46-15.86-8.76-17.87a22.53,22.53,0,0,0-5.92-2.66,51,51,0,0,0-5.07-1Z"/><path class="cls-3" d="M100.67,387.48c-10,2.14-16.13,1.5-19.15-2.14l-.06-.07c-2.16-2.77-3.21-7-3.21-13v-96a47.49,47.49,0,0,1,.36-6.88,21.87,21.87,0,0,1,2.57-6.84c2.84-5.26,9.09-8.91,19.69-11.17q18.66-3.88,37.4-7.39c18.95-2.37,38.41-1,54.62,9.4A53.38,53.38,0,0,1,217,297.73c-.08,19.64-9.89,38.77-23.5,52.4C178.67,365,158.68,376.34,137.64,380Q119.12,383.56,100.67,387.48Zm37.58-47.65c8.7-1.67,16.36-5.77,23.41-12.57,6.69-6.46,9.94-13.38,9.94-21.23s-3.18-13.8-9.72-18c-6.82-4.39-14.63-5.68-23.84-3.91-5.88,1.13-8.82,1.7-14.69,2.88v55.76C129.3,341.56,132.28,341,138.25,339.83Z"/><path class="cls-3" d="M100.88,256.17q18.65-3.88,37.36-7.39c17.95-2.26,36.16-1.78,51.69,8.84,13.6,9,23,24.08,22.35,40.83,0,18.31-8.89,35.92-21.85,48.58a98.06,98.06,0,0,1-52.79,28.22q-18.52,3.57-37,7.49c-8.2,1.74-13.3,1.44-15.31-1q-2.43-3.09-2.42-10.51v-96a44.67,44.67,0,0,1,.3-6.11,15.92,15.92,0,0,1,1.91-4.91c1.88-3.52,7.12-6.24,15.73-8.07m17.76,92.28c7.83-1.59,11.76-2.36,19.6-3.87,9.28-1.5,19.86-7.37,26.33-14.1,6.64-5.66,12.11-16.38,11.76-25.27,0-9.32-3.82-16.47-11.46-21.39s-16.58-6.42-26.83-4.45c-7.77,1.49-11.65,2.26-19.4,3.83v65.25M100.9,246.67h0c-9.29,1.79-18.75,5.74-23.69,14.32A26.74,26.74,0,0,0,74,269.73a51.71,51.71,0,0,0-.42,7.64v96c0,6.95,1.31,12,4,15.44l.06.08.06.07c5.22,6.29,15.61,4.86,23,3.29q18.45-3.93,37-7.49a111.49,111.49,0,0,0,59-31.51c14.3-16.18,25.17-33.82,25.16-56.2.14-19.1-9.31-37.81-25.9-47.77-16.76-10.87-38.14-14.2-57.62-10q-18.69,3.5-37.32,7.38Zm27.16,44.14c4-.79,6-1.18,10-1.95,8.08-1.55,14.9-.43,20.85,3.38,5.45,3.49,8,8.15,8,14.61s-2.59,11.83-8.13,17.19a39.72,39.72,0,0,1-20.51,11c-4.07.78-6.11,1.18-10.18,2V290.81Z"/><path class="cls-3" d="M296.84,358.44c-19.12,2.15-40.41-2.15-55.84-13.36-14.22-10.33-23-27.75-23.3-45.47-.18-9.65,2.65-21.28,6.59-29.89a88.19,88.19,0,0,1,17.51-25,103.46,103.46,0,0,1,24.84-17.32,94.19,94.19,0,0,1,29-8.47c19.05-2.11,40,3.06,55.58,14.39a59.85,59.85,0,0,1,24,47.74c0,19.35-9,38.52-22.85,51.77C337.66,346.94,317.47,356.65,296.84,358.44Zm-.61-99.54c-8.61.93-16.16,4.58-23.09,11.12-6.66,6.29-9.9,13.66-9.9,22.49s3.26,15.37,10,20.05a32.8,32.8,0,0,0,23.22,5.87,40.23,40.23,0,0,0,23.16-10.62,28.31,28.31,0,0,0,9.87-22.24c0-9.05-3.27-15.8-10-20.59A32.54,32.54,0,0,0,296.23,258.9Z"/><path class="cls-3" d="M295.62,223.67c18.73-.79,37.3,1.46,52.53,13.53,13.58,10.46,23,26.62,22.3,44.17.06,18.13-8.07,35.84-21.28,48.19a85.93,85.93,0,0,1-52.33,24.13c-18.08,2-38-1.19-52.72-12.6-13.92-9.49-21.44-25.63-21.68-42.18a64,64,0,0,1,6.11-27.72A72.08,72.08,0,0,1,244.84,248a85.72,85.72,0,0,1,23.43-16.3,78.17,78.17,0,0,1,27.35-8m.82,99.51c9-.66,19.69-5.68,26.15-11.95,7.1-5.67,12.15-17,11.65-26.08,0-10.47-3.92-18.54-11.76-24.14a37,37,0,0,0-26.25-6.85c-9.1.67-19.82,6-26.12,12.56-7,5.9-12.07,17.24-11.62,26.39,0,10.25,3.9,18.05,11.72,23.49a37.45,37.45,0,0,0,26.23,6.58m-.82-109a87.43,87.43,0,0,0-30.6,8.95,96.26,96.26,0,0,0-26.25,18.34A83.62,83.62,0,0,0,220,268.26,74.52,74.52,0,0,0,213,300.33c-.6,19.32,9.47,37.55,24.91,48.75,17.08,13.2,38.2,15.28,59,14.1,22.31-3.53,42.3-10.92,58.74-27.1,15.18-14.14,24.47-34.56,24.42-55.34.12-20-9.29-39.7-25.75-51.31a81.12,81.12,0,0,0-58.63-15.25Zm.82,99.51a28.59,28.59,0,0,1-20.21-5.16c-5.62-3.93-8.24-9.19-8.24-16.6a24.16,24.16,0,0,1,8.17-18.61c6-5.7,12.62-8.87,20.07-9.67A28.39,28.39,0,0,1,316.49,269c5.6,4,8.22,9.42,8.22,17s-2.57,13.45-8.09,18.4a35.1,35.1,0,0,1-20.18,9.29Z"/><path class="cls-3" d="M455.48,348c-19.78.57-40.86-5.33-56.12-18-13.8-11.43-23.48-29.36-23.44-47.4a74.92,74.92,0,0,1,6.62-29.34,78.87,78.87,0,0,1,17.63-23.56,93.39,93.39,0,0,1,25-15.27,90.17,90.17,0,0,1,29.1-6.07,87.64,87.64,0,0,1,55.76,19c14.68,11.87,24.08,30.68,24.08,49.72,0,18.85-8.81,37.56-22.9,49.88A86.71,86.71,0,0,1,455.48,348Zm-.61-99.58c-8.64.21-16.23,3.23-23.2,9.2a27.11,27.11,0,0,0-9.95,21.68c0,8.82,3.29,15.63,10,20.87A35.26,35.26,0,0,0,455.07,308a37.16,37.16,0,0,0,23.26-8.71c6.66-5.39,9.9-12.39,9.9-21.42s-3.28-16.08-10-21.42A34.9,34.9,0,0,0,454.87,248.44Z"/><path class="cls-3" d="M454.25,213.15A77.82,77.82,0,0,1,507,231a58.71,58.71,0,0,1,22.35,46c.6,17.88-8.48,34.6-21.33,46.43-14.17,12.79-33.44,19.77-52.5,19.81-18.69.55-38.53-4.6-53-17-13.73-10.42-21.54-26.92-21.81-44a60.65,60.65,0,0,1,6.14-27.22,67.28,67.28,0,0,1,16.39-21.89,81.56,81.56,0,0,1,23.56-14.36,74.72,74.72,0,0,1,27.47-5.72m.82,99.58c8.81.12,19.66-4,26.25-9.79,7.23-5.2,12.25-16.29,11.69-25.12.56-8.85-4.51-20-11.79-25.11-6.59-5.74-17.6-9.6-26.35-9-8.89-.13-19.8,4.34-26.24,10.41-7.09,5.42-12.18,16.51-11.68,25.42-.56,8.69,4.56,19.53,11.78,24.46,6.65,5.63,17.63,9.32,26.34,8.75m-.82-109.07a83.68,83.68,0,0,0-30.74,6.42,87.12,87.12,0,0,0-26.39,16.17,74.93,74.93,0,0,0-18.86,25.24A70.3,70.3,0,0,0,371.15,283c-.58,19.86,9.86,38.61,25.06,50.83,16.79,14.29,37.89,18.43,59.27,19,22-1.65,42.11-7.14,58.93-22.25a70.28,70.28,0,0,0,24.46-53.33,68.39,68.39,0,0,0-25.8-53.43c-16.17-13.51-37.68-21.09-58.82-20.09Zm.82,99.58a30.75,30.75,0,0,1-20.29-6.83c-5.65-4.39-8.28-9.87-8.28-17.29a22.1,22.1,0,0,1,8.21-17.93,31.26,31.26,0,0,1,20.16-8,30.52,30.52,0,0,1,20.33,7c5.63,4.45,8.25,10.1,8.25,17.73s-2.58,13.23-8.11,17.72a32.44,32.44,0,0,1-20.27,7.63Z"/><path class="cls-3" d="M560.68,346.07c-10.22-.31-16.42-2.43-19.49-6.81l-.06-.09c-2.2-3.29-3.27-7.79-3.27-13.76v-96a45.19,45.19,0,0,1,.36-6.79,17.13,17.13,0,0,1,2.63-6.22c2.89-4.56,9.25-6.7,20-6.37q19,.66,37.94,1.69c20.22.59,40.17,9.73,55.18,22.63,14.31,12.28,24.25,30.94,24.28,50.12,0,18.21-9.24,35.88-23.65,46.72C638.91,343.06,618,349,598.18,347.56Q579.45,346.63,560.68,346.07Zm38.12-38.52a36.17,36.17,0,0,0,23.69-6.9c6.75-4.84,10-11,10-18.83s-3.21-14.57-9.82-20.35a38.22,38.22,0,0,0-24.12-9.69c-6-.3-8.93-.43-14.89-.68v55.75C589.74,307.11,592.76,307.25,598.8,307.55Z"/><path class="cls-3" d="M560.88,214.8q19,.66,37.92,1.69c19.15.56,38,8.76,52.21,21.35,13.6,11.31,22.55,28.41,22.5,46.23.65,17.24-8.89,32.89-22,43.31C636.6,339,617,344.16,598.18,342.82q-18.73-.93-37.5-1.5c-8.34-.25-13.53-1.79-15.58-4.72q-2.46-3.68-2.46-11.1v-96a43.1,43.1,0,0,1,.3-6,12.42,12.42,0,0,1,1.95-4.44c1.91-3.07,7.24-4.51,16-4.25m18,96.6c8,.32,11.93.5,19.88.89,8.66.8,19.75-2.37,26.62-7.72,7.92-5.65,11.88-13.1,11.88-22.42s-3.86-17.4-11.57-24.17c-6.66-6.33-18-10.87-27.14-11-7.86-.39-11.8-.56-19.67-.87V311.4m-18-106.09h0c-7.91-.24-19,.46-24.1,8.56a20.88,20.88,0,0,0-3.27,7.94,48.06,48.06,0,0,0-.43,7.54v96c0,6.95,1.34,12.31,4.09,16.42l.06.09.06.09c5.32,7.56,15.9,8.66,23.39,8.89q18.75.56,37.5,1.49c21.64,0,42-3.6,59.56-17.24A62.05,62.05,0,0,0,683,284.94c.05-20.73-10.23-40.8-26-54-15.85-14-36.85-23.29-58.19-23.92q-18.93-1-37.87-1.69Zm27.57,50.74c4,.18,6.08.28,10.12.48a33.33,33.33,0,0,1,21.1,8.43c5.5,4.81,8.07,10.08,8.07,16.54s-2.61,11.21-8.21,15.22a31.61,31.61,0,0,1-20.75,6.08c-4.13-.21-6.2-.3-10.33-.49V256.05Z"/><path class="cls-3" d="M704.78,356c-11.6-1.22-18.66-5.24-21.17-11.63A29.62,29.62,0,0,1,682,333.61v-96a44.61,44.61,0,0,1,.36-6.64,15.41,15.41,0,0,1,2.62-6.13c2.87-4.35,9.22-6,20-4.88,4.32.45,17.46,1.91,21.34,11.68l0,.14,0,.14a34.81,34.81,0,0,1,1.28,10.67v80.88c16.92,2,33.8,4.24,50.68,6.62,5.16.75,9,1.86,11.61,3.38a14.58,14.58,0,0,1,6.66,7.79,27.79,27.79,0,0,1,1.31,9.19,24.08,24.08,0,0,1-1.31,8.77,9,9,0,0,1-6,5.61c-3.11.89-7.23,1-12.43.27Q741.54,360,704.78,356Z"/><path class="cls-3" d="M705,224.72c9.53,1,15.17,3.79,16.94,8.25a30.54,30.54,0,0,1,1,9.09v85.62q27.76,3.27,55.44,7.18c4.47.64,7.73,1.56,9.76,2.73a8.62,8.62,0,0,1,4.07,4.66,23.47,23.47,0,0,1,1,7.5,20.56,20.56,0,0,1-1,7.18,5,5,0,0,1-3.46,3.27c-2.58.77-6.1.82-10.58.18q-36.63-5.17-73.39-9.15c-9.54-1-15.12-3.72-16.76-8.25q-1.21-2.88-1.22-8.92v-96a42.59,42.59,0,0,1,.3-5.92,11.38,11.38,0,0,1,1.94-4.39c1.91-2.92,7.23-4,15.94-3.05m0-9.49c-7.88-.83-18.94-1-24,6.76a19.47,19.47,0,0,0-3.27,7.84,48.39,48.39,0,0,0-.42,7.37v96c0,5.34.61,9.34,1.93,12.55,4,10.21,15.46,14.26,25.58,15q36.78,4,73.39,9.15c5.84.84,10.54.72,14.37-.39a12.62,12.62,0,0,0,8.55-7.89,28.39,28.39,0,0,0,1.61-10.38,32.75,32.75,0,0,0-1.6-10.86,20.31,20.31,0,0,0-9.26-11c-3.29-1.89-7.57-3.19-13.46-4q-22.95-3.23-45.93-6.06V243.18a39,39,0,0,0-1.54-12.27l-.09-.28-.11-.27c-4.2-10.15-15.53-14.35-25.73-15.13Z"/><path class="cls-3" d="M824.3,372.34c-11.53-1.95-18.54-6.41-21-12.95a31.15,31.15,0,0,1-1.56-10.84v-96c0-7.43,1.82-12.27,5.58-14.78,3.53-2.36,9.13-2.82,17.63-1.38q40,6.92,79.71,15.22a75.43,75.43,0,0,1,7.47,1.89,28.36,28.36,0,0,1,6.76,3.51c5.39,3.62,8.2,10.23,8.2,19.62,0,12.93-5.93,15.95-10.85,16.3-2.73.2-6.6-.22-11.78-1.32q-28.59-6.08-57.35-11.29v7.94q17.7,3.21,35.35,6.75a74.78,74.78,0,0,1,7.48,1.8,27.82,27.82,0,0,1,6.77,3.43c5.4,3.56,8.22,10.14,8.22,19.52,0,12.94-6.08,16-11.09,16.39A45.36,45.36,0,0,1,882,335q-17.44-3.5-34.94-6.66v7.94q28.86,5.21,57.55,11.33a74.52,74.52,0,0,1,7.48,1.9,28.24,28.24,0,0,1,6.75,3.5c5.39,3.62,8.2,10.24,8.2,19.62,0,12.94-5.93,16-10.85,16.31a45.34,45.34,0,0,1-11.78-1.32Q864.47,379.27,824.3,372.34Z"/><path class="cls-3" d="M904.62,256.38q4.64,1,7,1.76a22.36,22.36,0,0,1,5.34,2.8q5.43,3.62,5.43,14.67,0,12.08-7.45,12.51c-2.28.19-5.78-.23-10.48-1.23q-31-6.48-62.07-12.14v17.44q20.07,3.58,40.07,7.59a71.49,71.49,0,0,1,7,1.67,21.91,21.91,0,0,1,5.35,2.74q5.46,3.56,5.45,14.61,0,12.07-7.67,12.55-3.43.33-10.5-1.1-19.78-4-39.66-7.51v17.43q31.21,5.68,62.27,12.19,4.64,1,7,1.75a22.73,22.73,0,0,1,5.34,2.8q5.43,3.61,5.43,14.67,0,12.09-7.45,12.51-3.42.29-10.48-1.22-39.95-8.36-80.12-15.28c-9.47-1.6-15-4.66-16.65-9.29q-1.21-3-1.22-9v-96q0-8.81,3.86-11.37c2.57-1.72,7.45-2,14.62-.78q40,6.9,79.71,15.21m0-9.49q-39.74-8.31-79.71-15.22c-9.66-1.63-16.22-1-20.65,2-4.84,3.25-7.3,9.37-7.3,18.18v96c0,5.34.61,9.38,1.91,12.68,4,10.36,15.14,15.16,25.43,16.6q40.22,6.93,80.12,15.27c5.69,1.21,9.85,1.67,13.08,1.42,5.37-.34,14.24-3.38,14.24-20.09.25-9.5-3.12-19-11-24.6a32.8,32.8,0,0,0-8.15-4.19,78.58,78.58,0,0,0-8-2l-9-1.89c5.52-.55,14-4,14-20.17.26-9.47-3.11-18.93-11-24.47-1-.67-2-1.26-2.9-1.78,3.5.72,5.25,1.09,8.75,1.84,5.69,1.21,9.85,1.67,13.07,1.42,5.38-.34,14.25-3.39,14.25-20.09.25-9.5-3.12-19-11-24.61a33,33,0,0,0-8.13-4.18,79.61,79.61,0,0,0-8-2Z"/><path class="cls-2" d="M295.21,126.22c5.24,1,7.87,2.87,7.87,5.52a18.28,18.28,0,0,1-1.41,5q-11.3,28.8-22.56,57.63a10.88,10.88,0,0,1-.82,1.79,12.42,12.42,0,0,1-3.11,3,12.15,12.15,0,0,1-6,2.36,10,10,0,0,1-6-.91,7.83,7.83,0,0,1-3.34-2.8q-6.86-16.26-13.72-32.49-6.63,17.49-13.25,35a10.59,10.59,0,0,1-1,1.84,14.39,14.39,0,0,1-1.88,2.25,11.24,11.24,0,0,1-6.44,3.22,10.82,10.82,0,0,1-6.15-.58,7.18,7.18,0,0,1-3.21-2.5c-.33-.55-.5-.82-.82-1.37q-11.28-25.8-22.57-51.58a13.45,13.45,0,0,1-1.29-4.66c0-2.65,2.61-5.17,7.83-7.53a24.56,24.56,0,0,1,6.14-2,4.81,4.81,0,0,1,4.21.94,11.76,11.76,0,0,1,2.63,4.46q6.45,15.63,12.88,31.26,6.38-17.26,12.77-34.51a11.74,11.74,0,0,1,6-6.59,15.54,15.54,0,0,1,4.86-1.35,9.38,9.38,0,0,1,5.57.9,6.88,6.88,0,0,1,3.29,2.81q6.75,16.38,13.49,32.78,6.45-17.46,12.92-34.91c.62-1.6,1.13-2.78,1.52-3.55a7.57,7.57,0,0,1,2.18-2.39,7.65,7.65,0,0,1,3.93-1.48A18,18,0,0,1,295.21,126.22Z"/><path class="cls-2" d="M362.87,122.4a5.6,5.6,0,0,1,3.18-2.32,28,28,0,0,1,11.07-.85,9.68,9.68,0,0,1,3.07,1,4.07,4.07,0,0,1,1.65,1.89,15.35,15.35,0,0,1,.59,5.13v55.14a24.25,24.25,0,0,1-.18,3.44,7.64,7.64,0,0,1-1.12,2.7c-1.1,1.86-4.17,2.94-9.19,3.28q-8.25.57-9.66-3a13.77,13.77,0,0,1-.71-5.12V163.52q-15.61,1.14-31.2,2.54v20.27a24.16,24.16,0,0,1-.18,3.44,7.87,7.87,0,0,1-1.12,2.74c-1.1,1.89-4.16,3.05-9.17,3.53-5.49.52-8.71-.38-9.65-2.74a13.56,13.56,0,0,1-.7-5.09V133.07a26.53,26.53,0,0,1,.17-3.45,7.94,7.94,0,0,1,1.12-2.74q1.65-2.85,9.17-3.58c5.49-.52,8.75.42,9.77,2.78a16.3,16.3,0,0,1,.59,5.11v20.27q15.58-1.41,31.2-2.54V128.55a24.25,24.25,0,0,1,.18-3.44A7.57,7.57,0,0,1,362.87,122.4Z"/><path class="cls-2" d="M441.75,120.78q16,27.32,31.86,54.69,2,3.36,2,5c0,2.39-2.29,4.57-6.85,6.57a18.11,18.11,0,0,1-6.31,1.81,7.16,7.16,0,0,1-3.78-.81,6.27,6.27,0,0,1-2.12-1.84q-.66-1-1.83-2.94c-2.46-4.23-3.69-6.34-6.14-10.57q-16.35.51-32.68,1.19l-6.13,11q-1.18,2-1.83,3a8.19,8.19,0,0,1-2.12,1.94,7.19,7.19,0,0,1-3.78,1.14,17.17,17.17,0,0,1-6.31-1.35c-4.55-1.6-6.83-3.58-6.83-6,0-1.12.66-2.85,2-5.18q15.87-28.59,31.84-57.12a10,10,0,0,1,3.95-3.84,12.25,12.25,0,0,1,5.61-1.6Q438.67,115.71,441.75,120.78ZM432.19,145c-3.12,5.55-4.67,8.34-7.79,13.91,6.28-.26,9.42-.37,15.69-.57C436.93,152.94,435.35,150.28,432.19,145Z"/><path class="cls-2" d="M465.7,114.9q32.82-.53,65.63-.14a15.33,15.33,0,0,1,5.55.84,4.18,4.18,0,0,1,2.36,2.38,12.37,12.37,0,0,1,.59,4.18,11.73,11.73,0,0,1-.59,4.11,3.54,3.54,0,0,1-2,2.1,16,16,0,0,1-6,.8c-9-.14-13.53-.18-22.54-.2v50a22.83,22.83,0,0,1-.18,3.38,7.26,7.26,0,0,1-1.06,2.53,5,5,0,0,1-3.13,2,23.62,23.62,0,0,1-5.9.6,23.11,23.11,0,0,1-5.85-.57,4.93,4.93,0,0,1-3.07-2,7.42,7.42,0,0,1-1.06-2.58,24.16,24.16,0,0,1-.17-3.42V129c-9.07.07-13.6.13-22.67.3a15.19,15.19,0,0,1-5.54-.63,3.89,3.89,0,0,1-2.36-2.28,12,12,0,0,1-.59-4.16,11.8,11.8,0,0,1,.59-4.14,3.72,3.72,0,0,1,2-2.18A16.28,16.28,0,0,1,465.7,114.9Z"/><path class="cls-2" d="M581.83,116.17q32.8,1.45,65.54,3.81a15.76,15.76,0,0,1,5.54,1.17,4.51,4.51,0,0,1,2.35,2.52,12.74,12.74,0,0,1,.59,4.22,11.41,11.41,0,0,1-.59,4.07,3.2,3.2,0,0,1-2,2,15.67,15.67,0,0,1-6,.44c-9-.68-13.5-1-22.5-1.56v50a22.58,22.58,0,0,1-.18,3.37,6.82,6.82,0,0,1-1.06,2.47,4.6,4.6,0,0,1-3.12,1.84,29.49,29.49,0,0,1-11.73-.68,5.3,5.3,0,0,1-3.07-2.2,7.61,7.61,0,0,1-1.06-2.64,24.16,24.16,0,0,1-.18-3.44V131.64c-9.05-.48-13.58-.69-22.64-1.06a15.79,15.79,0,0,1-5.54-1,4.24,4.24,0,0,1-2.36-2.42,12.28,12.28,0,0,1-.59-4.2,11.48,11.48,0,0,1,.59-4.1,3.4,3.4,0,0,1,2-2.06A15.84,15.84,0,0,1,581.83,116.17Z"/><path class="cls-2" d="M715.61,129.11a4.39,4.39,0,0,1,3.17-1.74,21.81,21.81,0,0,1,5.64,0,24,24,0,0,1,5.4,1.13,11.4,11.4,0,0,1,3,1.56,5.13,5.13,0,0,1,1.65,2.18,16.48,16.48,0,0,1,.58,5.24v55.14a25.41,25.41,0,0,1-.17,3.41,6.24,6.24,0,0,1-1.12,2.49q-1.65,2.49-9.16,1.61c-5.48-.64-8.69-2.22-9.63-4.77a14.84,14.84,0,0,1-.71-5.24V170q-15.55-1.74-31.15-3.18v20.27a23.58,23.58,0,0,1-.18,3.41,6.46,6.46,0,0,1-1.12,2.52c-1.1,1.69-4.15,2.3-9.18,1.85-5.49-.48-8.71-2-9.65-4.5a14.74,14.74,0,0,1-.7-5.23V130a23.9,23.9,0,0,1,.17-3.41,6.59,6.59,0,0,1,1.12-2.54c1.1-1.7,4.16-2.34,9.18-1.89,5.49.48,8.75,2,9.77,4.56a17.51,17.51,0,0,1,.59,5.22v20.27q15.58,1.46,31.15,3.18V135a23.42,23.42,0,0,1,.18-3.4A6.37,6.37,0,0,1,715.61,129.11Z"/><path class="cls-2" d="M765.25,187.82q18,2.48,36.06,5.3c1.79.28,3.14.54,4,.78a12.06,12.06,0,0,1,3.1,1.44q3.16,1.91,3.16,8.26c0,4.63-1.44,7.12-4.33,7.45a22.57,22.57,0,0,1-6.08-.37Q778,207.05,754.81,204c-5.47-.72-8.68-2.38-9.62-5a14.16,14.16,0,0,1-.7-5.16V138.59c0-3.38.74-5.58,2.23-6.62s4.3-1.29,8.44-.74q23.12,3.12,46.15,6.65c1.79.28,3.14.54,4,.78a12.06,12.06,0,0,1,3.1,1.44q3.16,1.91,3.16,8.26,0,7-4.33,7.45a22.57,22.57,0,0,1-6.08-.37q-17.94-2.81-35.94-5.27v10c9.28,1.28,13.92,1.94,23.19,3.33a40.66,40.66,0,0,1,4,.76,12,12,0,0,1,3.1,1.41c2.1,1.25,3.16,4,3.16,8.24,0,4.64-1.49,7.12-4.45,7.46a22.54,22.54,0,0,1-6.09-.32c-9.17-1.37-13.76-2-23-3.29Z"/><path class="cls-2" d="M100.88,256.17q18.65-3.88,37.36-7.39c17.95-2.26,36.2-1.59,51.69,8.84,13.44,9.05,22.68,24.43,22.35,40.83-.37,17.91-9.22,35.92-21.85,48.58-14,14.07-32.88,24.77-52.79,28.22q-18.52,3.57-37,7.49c-8.2,1.74-13.36,1.43-15.31-1-1.62-2-2.42-5.57-2.42-10.51v-96a44.67,44.67,0,0,1,.3-6.11,15.92,15.92,0,0,1,1.91-4.91C87,260.72,92.27,258,100.88,256.17Zm63.69,74.31c6-5.69,11.93-16.55,11.76-25.27-.18-9.14-3.82-16.48-11.46-21.39s-16.58-6.42-26.83-4.45c-7.77,1.49-11.65,2.26-19.4,3.83v65.25c7.83-1.59,11.76-2.36,19.6-3.87C147.52,343.08,158.11,336.56,164.57,330.48Z"/><path class="cls-2" d="M295.62,223.67c18.26-1.2,37.32,1.66,52.53,13.53,13.41,10.48,22.6,27,22.3,44.17-.31,17.75-8.43,35.83-21.28,48.19a90.22,90.22,0,0,1-52.33,24.13c-17.86,1.78-38.14-2-52.72-12.6a54.15,54.15,0,0,1-21.68-42.18c-.17-9,2.46-19.75,6.11-27.72A81.76,81.76,0,0,1,244.84,248a97.84,97.84,0,0,1,23.43-16.3C276.29,227.73,286.74,224.25,295.62,223.67Zm-37.13,69.44c.24,10,3.9,18.05,11.72,23.49s16.71,7.44,26.23,6.58c8.85-.8,19.72-6.29,26.15-11.95s11.9-17.25,11.65-26.08C334,275,330.32,266.6,322.48,261a38,38,0,0,0-26.25-6.85c-8.94.81-19.84,6.68-26.12,12.56S258.27,284.17,258.49,293.11Z"/><path class="cls-2" d="M454.25,213.15A82.85,82.85,0,0,1,507,231a61.59,61.59,0,0,1,22.35,46c.25,17.55-8.48,34.72-21.33,46.43-14,12.8-33.7,19.52-52.5,19.81-18.45.29-38.61-5.38-53-17a59.17,59.17,0,0,1-21.81-44,63.4,63.4,0,0,1,6.14-27.22,69.76,69.76,0,0,1,16.39-21.89,84.5,84.5,0,0,1,23.56-14.36A82.36,82.36,0,0,1,454.25,213.15ZM417,279.52c0,8.19,5.19,19.43,11.78,24.46s18,9,26.34,8.75,19.72-4.59,26.25-9.79S493,286.11,493,277.82s-5.13-19.88-11.79-25.11-17.93-9.24-26.35-9-19.84,5-26.24,10.41S417,271.13,417,279.52Z"/><path class="cls-2" d="M560.88,214.8q19,.66,37.92,1.69c19.15.56,38,9.16,52.21,21.35,13.23,11.34,22.2,28.77,22.5,46.23.29,16.9-8.9,33-22,43.31C636.73,339,617,344.16,598.18,342.82q-18.73-.93-37.5-1.5c-8.34-.25-13.59-1.8-15.58-4.72-1.65-2.4-2.46-6.15-2.46-11.1v-96a43.1,43.1,0,0,1,.3-6,12.42,12.42,0,0,1,1.95-4.44C546.8,216,552.13,214.54,560.88,214.8Zm64.54,89.77c7.65-5.69,11.88-13.1,11.88-22.42s-4.15-17.39-11.57-24.17c-6.65-6.07-18-10.87-27.14-11-7.86-.39-11.8-.56-19.67-.87V311.4c8,.32,11.93.5,19.88.89C607.46,313.09,618.58,309.67,625.42,304.57Z"/><path class="cls-2" d="M722.94,327.68q27.76,3.27,55.44,7.18c4.47.64,7.73,1.56,9.76,2.73a8.62,8.62,0,0,1,4.07,4.66,23.19,23.19,0,0,1,1,7.5,20.56,20.56,0,0,1-1,7.18,5,5,0,0,1-3.46,3.27c-2.58.77-6.1.82-10.58.18q-36.63-5.17-73.39-9.15c-9.54-1-15.12-3.72-16.76-8.25q-1.21-2.88-1.22-8.92v-96a42.59,42.59,0,0,1,.3-5.92,11.38,11.38,0,0,1,1.94-4.39c1.91-2.92,7.23-4,15.94-3.05,9.53,1,15.17,3.79,16.94,8.25a30.54,30.54,0,0,1,1,9.09Z"/><path class="cls-2" d="M842.35,340.17q31.21,5.68,62.27,12.19,4.64,1,7,1.75a22.73,22.73,0,0,1,5.34,2.8q5.43,3.61,5.43,14.67,0,12.09-7.45,12.51-3.42.29-10.48-1.22-39.95-8.36-80.12-15.28c-9.47-1.6-15-4.66-16.65-9.29q-1.21-3-1.22-9v-96q0-8.81,3.86-11.37c2.57-1.72,7.45-2,14.62-.78q40,6.9,79.71,15.21,4.64,1,7,1.76a22.36,22.36,0,0,1,5.34,2.8q5.43,3.62,5.43,14.67,0,12.08-7.45,12.51c-2.28.19-5.78-.23-10.48-1.23q-31-6.48-62.07-12.14v17.44q20.07,3.58,40.07,7.59a70.76,70.76,0,0,1,7,1.67,21.91,21.91,0,0,1,5.35,2.74q5.46,3.56,5.45,14.61,0,12.07-7.67,12.55-3.43.33-10.5-1.1-19.78-4-39.66-7.51Z"/></svg>